<?xml version="1.0" standalone="no"?>
<!DOCTYPE svg PUBLIC "-//W3C//DTD SVG 20010904//EN"
 "http://www.w3.org/TR/2001/REC-SVG-20010904/DTD/svg10.dtd">
<svg version="1.0" xmlns="http://www.w3.org/2000/svg"
 width="300.000000pt" height="300.000000pt" viewBox="0 0 300.000000 300.000000"
 preserveAspectRatio="xMidYMid meet">
<metadata>
Created by potrace 1.14, written by Peter Selinger 2001-2017
</metadata>
<g transform="translate(0.000000,300.000000) scale(0.100000,-0.100000)"
fill="#000000" stroke="none">
<path d="M10 2673 c0 -9 94 -244 402 -1003 88 -217 170 -423 182 -457 l21 -63
888 0 c510 0 886 4 883 9 -5 7 162 437 204 526 11 23 235 582 322 800 32 83
64 158 69 168 6 11 8 21 6 24 -3 2 -235 -143 -516 -324 -281 -180 -526 -338
-545 -350 l-34 -22 -33 57 c-18 31 -40 71 -49 87 -9 17 -58 102 -109 190 -51
88 -116 202 -145 252 -28 51 -55 92 -59 90 -4 -1 -94 -154 -201 -339 l-192
-336 -325 208 c-815 525 -769 495 -769 483z m1530 -246 c67 -120 98 -173 189
-331 50 -87 90 -160 89 -161 -2 -2 -74 -49 -161 -104 l-159 -102 -159 101
c-87 56 -159 105 -159 109 0 5 66 123 146 262 80 140 150 262 155 272 5 9 13
17 17 17 4 0 23 -28 42 -63z m-1208 -50 c70 -45 185 -119 255 -164 70 -46 178
-114 238 -153 61 -38 117 -74 125 -81 9 -6 37 -24 63 -40 39 -24 46 -33 38
-47 -5 -9 -69 -120 -141 -247 -73 -126 -141 -246 -152 -265 -11 -19 -34 -59
-50 -89 l-31 -53 -34 83 c-19 46 -40 100 -47 119 -19 49 -285 709 -301 745
-21 47 -115 285 -115 291 0 2 6 0 13 -6 6 -6 69 -48 139 -93z m2463 41 c-28
-67 -39 -96 -80 -198 -21 -52 -43 -108 -50 -125 -7 -16 -47 -115 -89 -220 -42
-104 -81 -199 -86 -210 -5 -11 -41 -101 -80 -200 -40 -99 -77 -189 -83 -201
-11 -20 -30 9 -199 306 -104 180 -188 331 -187 336 0 10 862 564 868 558 2 -2
-4 -23 -14 -46z m-1523 -644 c73 -48 135 -88 137 -90 8 -7 -131 -104 -149
-104 -5 0 -10 -3 -12 -7 -1 -5 -104 -72 -227 -151 l-223 -142 24 42 c191 332
310 538 313 538 2 0 64 -39 137 -86z m663 -36 c39 -67 81 -142 95 -167 14 -25
44 -77 66 -116 58 -99 94 -165 94 -172 0 -3 -8 1 -17 9 -10 8 -81 55 -158 104
-77 49 -142 91 -145 95 -3 3 -10 8 -16 10 -19 7 -274 174 -274 179 0 3 28 22
63 43 34 21 96 60 137 87 41 27 77 49 80 49 3 1 37 -54 75 -121z m-191 -268
c124 -80 256 -164 293 -187 37 -24 63 -44 58 -44 -36 -6 -1203 -3 -1197 2 4 4
117 78 252 164 135 87 268 172 295 190 28 18 55 30 61 27 6 -4 113 -72 238
-152z"/>
<path d="M223 792 c-12 -8 -15 -72 -14 -284 1 -118 1 -118 25 -118 13 0 26 6
28 13 3 6 4 69 4 140 -1 70 1 127 5 127 6 0 76 -88 177 -222 32 -43 50 -58 68
-58 l24 0 0 199 c0 186 -1 199 -19 204 -36 9 -40 -5 -38 -141 1 -74 0 -135 -3
-137 -3 -2 -53 57 -111 132 -105 137 -126 157 -146 145z"/>
<path d="M759 792 c-10 -2 -29 -33 -47 -80 -96 -243 -122 -312 -122 -317 0 -3
14 -5 30 -5 25 0 33 6 46 38 9 20 20 44 24 52 5 11 26 15 81 16 41 0 79 -2 86
-4 7 -2 17 -20 24 -40 6 -21 16 -43 22 -49 10 -14 71 -18 65 -5 -2 5 -38 96
-80 203 -80 199 -81 201 -129 191z m31 -95 c0 -7 11 -39 25 -72 13 -33 25 -65
25 -71 0 -7 -23 -11 -64 -11 l-63 0 31 88 c16 48 34 85 38 83 4 -3 8 -11 8
-17z"/>
<path d="M980 779 c-16 -30 6 -44 65 -41 51 2 55 1 56 -20 0 -13 1 -90 2 -173
l2 -150 30 0 30 0 2 125 c1 69 2 147 2 173 1 48 1 49 34 47 80 -5 89 -2 85 27
l-3 26 -148 1 c-125 1 -150 -2 -157 -15z"/>
<path d="M1474 791 c-92 -23 -147 -96 -148 -196 -1 -91 33 -150 111 -189 40
-20 122 -21 168 -2 148 62 157 297 14 371 -34 18 -105 26 -145 16z m129 -77
c34 -25 51 -66 50 -123 0 -89 -48 -144 -126 -144 -58 0 -103 27 -122 75 -46
115 22 226 131 215 23 -2 53 -13 67 -23z"/>
<path d="M1808 792 c-16 -3 -18 -18 -18 -145 0 -129 2 -146 23 -182 58 -102
220 -101 280 3 16 27 20 55 22 167 1 74 -1 138 -4 144 -6 9 -26 14 -48 12 -10
-1 -13 -34 -13 -132 0 -154 -12 -194 -64 -207 -45 -12 -86 0 -110 31 -18 24
-21 44 -22 160 -1 73 -2 135 -3 138 -2 10 -24 16 -43 11z"/>
<path d="M2209 790 c-1 -3 -2 -94 -3 -203 l-1 -198 30 3 30 3 3 76 c2 68 5 77
24 82 23 6 32 -2 103 -100 38 -53 50 -63 75 -63 16 0 30 4 30 9 0 4 -25 43
-56 86 -51 71 -54 79 -38 88 69 39 88 130 37 179 -16 15 -41 30 -56 34 -34 8
-177 12 -178 4z m181 -70 c48 -48 12 -108 -67 -117 l-53 -5 0 71 0 71 50 0
c37 0 55 -5 70 -20z"/>
<path d="M2620 788 c-100 -37 -104 -163 -7 -202 103 -42 112 -49 110 -85 0
-18 -9 -38 -20 -46 -23 -18 -83 -12 -117 11 -21 13 -29 14 -41 4 -25 -20 -17
-38 25 -60 48 -25 122 -26 161 -3 53 31 75 115 43 161 -16 24 -72 55 -116 66
-15 3 -35 17 -44 31 -15 23 -15 27 0 50 22 33 70 37 113 9 19 -12 24 -12 37 2
22 21 20 31 -9 50 -29 19 -100 26 -135 12z"/>
</g>
</svg>
